#N canvas 19 479 494 498 10;
#X obj -7 41 adc~;
#X obj 259 207 mtof;
#X obj 150 425 output~;
#X obj 259 253 *~;
#X obj 313 219 dbtorms;
#X floatatom 148 94 5 0 0 0 - - -;
#X floatatom 22 94 5 0 0 0 - - -;
#X text -9 26 Mic input;
#X obj 42 62 sigmund~ pitch env;
#X obj 63 2 playsound~;
#X obj 117 105 + 0;
#X obj 313 239 pack f 10;
#X obj 313 259 line~;
#X obj -13 388 grapher 500 10 40 80;
#X msg 326 197 80;
#X obj 336 174 loadbang;
#X msg 316 324 start;
#X msg 315 346 stop;
#X msg 314 301 open output.wav;
#X obj 273 445 writesf~ 2;
#X text 313 284 output the sound file;
#X obj 257 150 + 5;
#X obj -14 150 - 2;
#X obj 259 229 phasor~;
#X obj 117 194 mtof;
#X obj 116 217 phasor~;
#X obj 115 241 *~;
#X obj 170 216 dbtorms;
#X obj 170 236 pack f 10;
#X obj 170 256 line~;
#X msg 183 194 80;
#X obj 183 172 loadbang;
#X text -17 -26 patching by Anish King based on Dan Ellis 2010 pitch
tracking patches;
#X obj -15 189 mtof;
#X obj -16 212 phasor~;
#X obj -17 236 *~;
#X obj 38 211 dbtorms;
#X obj 38 231 pack f 10;
#X obj 38 251 line~;
#X msg 51 189 80;
#X obj 61 166 loadbang;
#X text -19 -27;
#X obj 201 40 mtof;
#X obj 201 86 *~;
#X obj 255 52 dbtorms;
#X obj 255 72 pack f 10;
#X obj 255 92 line~;
#X msg 268 30 80;
#X obj 278 7 loadbang;
#X obj 201 62 phasor~;
#X text 59 -17;
#X text 18 114;
#X obj 321 94 mtof;
#X obj 321 140 *~;
#X obj 375 106 dbtorms;
#X obj 375 126 pack f 10;
#X obj 375 146 line~;
#X msg 388 84 80;
#X obj 398 61 loadbang;
#X obj 319 37 + 5;
#X obj 321 116 phasor~;
#X obj 201 7 - 2;
#X connect 1 0 23 0;
#X connect 3 0 2 0;
#X connect 3 0 2 1;
#X connect 3 0 19 0;
#X connect 3 0 19 1;
#X connect 4 0 11 0;
#X connect 8 0 6 0;
#X connect 8 0 10 0;
#X connect 8 0 13 0;
#X connect 8 1 5 0;
#X connect 9 0 8 0;
#X connect 9 1 13 1;
#X connect 10 0 24 0;
#X connect 10 0 22 0;
#X connect 10 0 21 0;
#X connect 11 0 12 0;
#X connect 12 0 3 1;
#X connect 14 0 4 0;
#X connect 15 0 14 0;
#X connect 16 0 19 0;
#X connect 17 0 19 0;
#X connect 18 0 19 0;
#X connect 21 0 1 0;
#X connect 21 0 61 0;
#X connect 21 0 59 0;
#X connect 22 0 33 0;
#X connect 22 0 61 0;
#X connect 22 0 59 0;
#X connect 23 0 3 0;
#X connect 24 0 25 0;
#X connect 25 0 26 0;
#X connect 26 0 2 0;
#X connect 26 0 2 1;
#X connect 26 0 19 1;
#X connect 26 0 19 0;
#X connect 27 0 28 0;
#X connect 28 0 29 0;
#X connect 29 0 26 1;
#X connect 30 0 27 0;
#X connect 31 0 30 0;
#X connect 33 0 34 0;
#X connect 34 0 35 0;
#X connect 35 0 19 0;
#X connect 35 0 19 1;
#X connect 35 0 2 0;
#X connect 35 0 2 1;
#X connect 36 0 37 0;
#X connect 37 0 38 0;
#X connect 38 0 35 1;
#X connect 39 0 36 0;
#X connect 40 0 39 0;
#X connect 42 0 49 0;
#X connect 43 0 2 0;
#X connect 43 0 2 1;
#X connect 43 0 19 0;
#X connect 43 0 19 1;
#X connect 44 0 45 0;
#X connect 45 0 46 0;
#X connect 46 0 43 1;
#X connect 47 0 44 0;
#X connect 48 0 47 0;
#X connect 49 0 43 0;
#X connect 52 0 60 0;
#X connect 53 0 2 0;
#X connect 53 0 2 1;
#X connect 53 0 19 1;
#X connect 53 0 19 0;
#X connect 54 0 55 0;
#X connect 55 0 56 0;
#X connect 56 0 53 1;
#X connect 57 0 54 0;
#X connect 58 0 57 0;
#X connect 59 0 52 0;
#X connect 60 0 53 0;
#X connect 61 0 42 0;
